<svg width="156" height="56" viewBox="0 0 156 56" fill="none" xmlns="http://www.w3.org/2000/svg">
<path fill-rule="evenodd" clip-rule="evenodd" d="M44.3497 22.7261H44.6115C44.7839 22.7261 44.9383 22.7023 44.9383 22.498C44.9383 22.317 44.7674 22.2886 44.6139 22.2886H44.3497V22.7261ZM44.0526 22.0718H44.6456C45.0258 22.0718 45.2347 22.1988 45.2347 22.5209C45.2347 22.7815 45.0778 22.9081 44.8175 22.9309L45.2439 23.5983H44.9418L44.53 22.9412H44.3498V23.5983H44.0526V22.0718ZM45.6584 22.8402C45.6584 22.211 45.1825 21.7544 44.5949 21.7544C44.0063 21.7544 43.5318 22.211 43.5318 22.8402C43.5318 23.4722 44.0063 23.9283 44.5949 23.9283C45.1825 23.9283 45.6584 23.4722 45.6584 22.8402ZM43.188 22.8396C43.188 22.0982 43.8193 21.4941 44.5949 21.4941C45.3699 21.4941 45.9998 22.0982 45.9998 22.8396C45.9998 23.5838 45.3699 24.1884 44.5949 24.1884C43.8193 24.1884 43.188 23.5838 43.188 22.8396Z" fill="white"/>
<path fill-rule="evenodd" clip-rule="evenodd" d="M15.2879 9.64404C13.1856 9.64404 11.4048 10.9537 10.7802 12.767C10.7652 12.807 10.7516 12.8493 10.739 12.8894L10.6355 13.2794L8 24.2189H14.6396C16.6234 24.2189 18.3124 23.0149 18.9549 21.3268L19.2055 20.2848L21.7691 9.64404H15.2879Z" fill="#034EA2"/>
<path fill-rule="evenodd" clip-rule="evenodd" d="M27.8125 6C25.6413 6 23.8104 7.3981 23.2456 9.30536C23.2029 9.44824 23.1684 9.59345 23.1412 9.74145L18.7749 27.8651H25.2561C27.4765 27.8651 29.3403 26.4023 29.8585 24.4275V24.4285H29.8614L34.3006 6H27.8125Z" fill="#F37021"/>
<path fill-rule="evenodd" clip-rule="evenodd" d="M38.5916 9.64404C36.5636 9.64404 34.8338 10.863 34.1539 12.5785C34.1194 12.6655 33.9985 13.0281 33.9985 13.0281L31.3032 24.2189H37.7854C40.013 24.2189 41.8808 22.7491 42.3931 20.7655L42.3926 20.7665H42.3931L45.0714 9.64404H38.5916Z" fill="#51B848"/>
<path d="M11.2467 32.9631V34.6395H13.1315V35.3714H11.2467V37.9135H10.375V32.2154H13.3121V32.9631H11.2467Z" fill="white"/>
<path d="M17.8849 33.9075C17.8849 34.4322 17.6964 34.852 17.3194 35.1668C16.9268 35.4973 16.3797 35.6626 15.6781 35.6626C15.4687 35.6626 15.2698 35.6469 15.0813 35.6154V37.9135H14.2096V32.4279C14.6389 32.2286 15.1624 32.1289 15.7802 32.1289C16.4503 32.1289 16.9713 32.2889 17.343 32.609C17.7042 32.9238 17.8849 33.3566 17.8849 33.9075ZM17.0132 33.8997C17.0132 33.1756 16.6048 32.8136 15.7881 32.8136C15.5158 32.8136 15.2802 32.8529 15.0813 32.9316V34.9307C15.2279 34.9569 15.4163 34.97 15.6467 34.97C16.0865 34.97 16.4242 34.873 16.6598 34.6788C16.8954 34.4952 17.0132 34.2355 17.0132 33.8997Z" fill="white"/>
<path d="M20.6189 32.9631V37.9135H19.7315V32.9631H18.42V32.2154H21.9226V32.9631H20.6189Z" fill="white"/>
<path d="M27.8402 37.9135L27.0392 36.1112C26.8559 35.702 26.5654 35.4973 26.1675 35.4973H25.6649V37.9135H24.7932V32.4358C25.2539 32.2312 25.7931 32.1289 26.4109 32.1289C27.0811 32.1289 27.5968 32.2784 27.958 32.5775C28.3088 32.8713 28.4842 33.2753 28.4842 33.7895C28.4842 34.5713 28.0784 35.0514 27.2669 35.2298V35.2455C27.5287 35.3819 27.7512 35.6495 27.9344 36.0483L28.7826 37.9135H27.8402ZM27.6125 33.8288C27.6125 33.152 27.2172 32.8136 26.4266 32.8136C26.1177 32.8136 25.8638 32.8529 25.6649 32.9316V34.852H26.3324C27.1858 34.852 27.6125 34.5109 27.6125 33.8288Z" fill="white"/>
<path d="M32.8882 35.4501C32.8882 35.5918 32.8856 35.6994 32.8804 35.7728L30.0689 36.1663C30.1579 36.9324 30.5898 37.3154 31.3647 37.3154C31.8254 37.3154 32.2155 37.2288 32.5348 37.0557L32.7861 37.701C32.4039 37.9004 31.9118 38.0001 31.3097 38.0001C30.6501 38.0001 30.137 37.8007 29.7705 37.402C29.4093 37.0137 29.2286 36.4759 29.2286 35.7885C29.2286 35.1327 29.3988 34.6028 29.7391 34.1987C30.0846 33.7895 30.5506 33.5849 31.137 33.5849C31.6814 33.5849 32.1108 33.7528 32.4249 34.0886C32.7338 34.4244 32.8882 34.8782 32.8882 35.4501ZM32.0636 35.3163C32.0584 34.5818 31.7443 34.2145 31.1213 34.2145C30.7862 34.2145 30.5218 34.3352 30.3281 34.5765C30.1239 34.8231 30.0192 35.1642 30.0139 35.5997L32.0636 35.3163Z" fill="white"/>
<path d="M35.7133 37.8742C35.5772 37.9371 35.3992 37.9686 35.1793 37.9686C34.4044 37.9686 34.017 37.5541 34.017 36.7251V34.3168H33.4437V33.6714H34.017V32.6877L34.8573 32.4279V33.6714H35.7133V34.3168H34.8573V36.6779C34.8573 37.0347 35.0458 37.2131 35.4227 37.2131C35.5327 37.2131 35.6295 37.1947 35.7133 37.158V37.8742Z" fill="white"/>
<path d="M39.7208 37.701C39.3491 37.9004 38.8412 38.0001 38.1973 38.0001C36.9774 38.0001 36.3675 37.5567 36.3675 36.67C36.3675 36.1348 36.6293 35.7518 37.1528 35.521C37.535 35.3531 38.1188 35.2481 38.9041 35.2061V34.9386C38.9041 34.4558 38.6057 34.2145 38.0088 34.2145C37.5952 34.2145 37.2052 34.3011 36.8387 34.4742L36.6188 33.8839C37.069 33.6846 37.5612 33.5849 38.0952 33.5849C39.1789 33.5849 39.7208 34.065 39.7208 35.0251V37.701ZM38.9041 35.7807C38.3386 35.8122 37.9434 35.8699 37.7182 35.9538C37.357 36.085 37.1764 36.3185 37.1764 36.6543C37.1764 37.137 37.5088 37.3783 38.1737 37.3783C38.5036 37.3783 38.747 37.3416 38.9041 37.2682V35.7807Z" fill="white"/>
<path d="M41.7403 32.4122C41.7403 32.5486 41.6906 32.664 41.5911 32.7585C41.4916 32.8529 41.3712 32.9002 41.2299 32.9002C41.0885 32.9002 40.9681 32.8529 40.8686 32.7585C40.7691 32.664 40.7194 32.5486 40.7194 32.4122C40.7194 32.2758 40.7691 32.1603 40.8686 32.0659C40.9681 31.9715 41.0885 31.9242 41.2299 31.9242C41.3712 31.9242 41.4916 31.9715 41.5911 32.0659C41.6906 32.1603 41.7403 32.2758 41.7403 32.4122ZM40.7979 37.9135V33.6714H41.6618V37.9135H40.7979Z" fill="white"/>
<path d="M42.7612 37.9135V31.7354H43.6251V37.9135H42.7612Z" fill="white"/>
<path d="M58.0498 17.8379L55.0793 13.0634L55.0535 13.0737L55.1102 17.8379H53.2002V9.98739H54.9197L57.9365 14.9224L57.9571 14.9017L57.8696 9.98739H59.7796V17.8379H58.0498Z" fill="white"/>
<path d="M65.7463 17.8379V14.6998H63.1928V17.8379H61.2005V9.98739H63.1928V12.9391H65.7463V9.98739H67.7387V17.8379H65.7463Z" fill="white"/>
<path d="M74.1791 17.8379L73.7981 16.7038H71.0901L70.6783 17.8379H68.5366L71.6667 9.98739H73.2369L76.3413 17.8379H74.1791ZM72.4699 12.4316H72.439L71.6359 15.114H73.273L72.4699 12.4316ZM73.2936 9.60936L70.6886 8.46493L71.224 7.22211L73.7775 8.57886L73.2936 9.60936Z" fill="white"/>
<path d="M83.3222 11.7481V17.8379H81.3299V11.7481H79.7906V9.98739H84.8512V11.7481H83.3222Z" fill="white"/>
<path d="M90.2002 17.8379V14.6998H87.6467V17.8379H85.6544V9.98739H87.6467V12.9391H90.2002V9.98739H92.1926V17.8379H90.2002Z" fill="white"/>
<path d="M99.5699 14.7308C99.5699 15.2659 99.5253 15.6992 99.4361 16.0306C99.3159 16.4552 99.1014 16.8246 98.7925 17.1388C98.24 17.705 97.5124 17.9881 96.6097 17.9881C96.1704 17.9881 95.7654 17.9242 95.3947 17.7965C94.976 17.6515 94.6328 17.4357 94.3651 17.1491C94.0356 16.8005 93.816 16.4276 93.7061 16.0306C93.6581 15.8511 93.6238 15.6491 93.6032 15.4247C93.5894 15.2452 93.5826 15.0139 93.5826 14.7308V9.98739H95.5749V14.7308C95.5749 14.938 95.5852 15.1158 95.6058 15.2642C95.6333 15.4541 95.6796 15.6146 95.7448 15.7458C95.9027 16.0669 96.1841 16.2274 96.5891 16.2274C97.0078 16.2274 97.2893 16.0703 97.4334 15.7562C97.4918 15.6284 97.5329 15.4696 97.557 15.2797C97.5707 15.1416 97.5776 14.9587 97.5776 14.7308V9.98739H99.5699V14.7308Z" fill="white"/>
<path d="M108.857 13.9126C108.857 15.0657 108.456 16.0358 107.653 16.8229C106.853 17.5997 105.878 17.9881 104.728 17.9881C103.61 17.9881 102.65 17.6066 101.851 16.8436C101.034 16.0703 100.625 15.1261 100.625 14.011C100.625 13.4172 100.727 12.858 100.929 12.3332C101.035 12.0536 101.205 11.7601 101.439 11.4529C102.249 10.3792 103.349 9.84239 104.739 9.84239C105.885 9.84239 106.856 10.2325 107.653 11.0127C108.456 11.7964 108.857 12.763 108.857 13.9126ZM106.865 13.923C106.865 13.2912 106.673 12.7527 106.288 12.3073C105.88 11.8378 105.367 11.6031 104.749 11.6031C104.124 11.6031 103.61 11.8309 103.205 12.2866C102.813 12.725 102.618 13.2602 102.618 13.8919C102.618 14.5375 102.815 15.083 103.21 15.5283C103.618 15.9944 104.138 16.2274 104.77 16.2274C105.377 16.2274 105.883 15.9926 106.288 15.5231C106.673 15.0778 106.865 14.5444 106.865 13.923ZM106.577 8.40797L106.082 7.3671L108.61 6L109.171 7.25318L106.577 8.40797ZM105.233 9.29866L104.749 8.6876L104.265 9.29866H102.556L104.198 7.53799H105.336L106.922 9.29866H105.233Z" fill="white"/>
<path d="M117.671 14.9017C117.444 15.8235 116.966 16.5692 116.235 17.1388C115.51 17.705 114.675 17.9881 113.727 17.9881C112.588 17.9881 111.618 17.5945 110.819 16.8074C110.016 16.0168 109.614 15.0484 109.614 13.9023C109.614 12.7596 110.012 11.7947 110.808 11.0075C111.601 10.2308 112.567 9.84239 113.707 9.84239C115.19 9.84239 116.334 10.4569 117.141 11.6859C117.422 12.1105 117.599 12.5386 117.671 12.9702H115.581C115.234 12.0588 114.606 11.6031 113.697 11.6031C113.082 11.6031 112.576 11.8326 112.178 12.2918C111.797 12.7337 111.606 13.2671 111.606 13.8919C111.606 14.5237 111.797 15.064 112.178 15.5128C112.579 15.9892 113.089 16.2274 113.707 16.2274C114.558 16.2274 115.183 15.7855 115.581 14.9017H117.671Z" fill="white"/>
<path d="M53.2002 37.7528V25.6725H56.266V35.0435H59.823V37.7528H53.2002Z" fill="white"/>
<path d="M73.1717 31.7126C73.1717 33.487 72.5538 34.9798 71.3179 36.191C70.0874 37.3863 68.5875 37.9839 66.8182 37.9839C65.0965 37.9839 63.6203 37.3969 62.3898 36.2229C61.1328 35.0329 60.5043 33.5799 60.5043 31.864C60.5043 30.9503 60.6601 30.0897 60.9717 29.2822C61.1354 28.8519 61.3969 28.4004 61.756 27.9276C63.0024 26.2754 64.6951 25.4493 66.834 25.4493C68.598 25.4493 70.0926 26.0496 71.3179 27.2502C72.5538 28.4561 73.1717 29.9436 73.1717 31.7126ZM70.1058 31.7286C70.1058 30.7564 69.8101 29.9277 69.2186 29.2424C68.5901 28.5199 67.8005 28.1587 66.8499 28.1587C65.8887 28.1587 65.0965 28.5093 64.4733 29.2105C63.8712 29.8852 63.5702 30.7086 63.5702 31.6808C63.5702 32.6742 63.8738 33.5135 64.4812 34.1988C65.1097 34.916 65.9098 35.2746 66.8816 35.2746C67.8164 35.2746 68.5954 34.9134 69.2186 34.1909C69.8101 33.5056 70.1058 32.6848 70.1058 31.7286Z" fill="white"/>
<path d="M82.29 37.7528L77.7189 30.4058L77.6793 30.4217L77.7665 37.7528H74.8274V25.6725H77.4733L82.1157 33.2665L82.1474 33.2346L82.0127 25.6725H84.9518V37.7528H82.29Z" fill="white"/>
<path d="M99.4016 31.5214C99.4016 33.3754 98.7942 34.9187 97.5795 36.1511C96.3595 37.3836 94.8305 37.9999 92.9926 37.9999C91.2181 37.9999 89.7129 37.3916 88.4771 36.175C87.236 34.9479 86.6154 33.4445 86.6154 31.6648C86.6154 29.8799 87.2465 28.3897 88.5088 27.1945C89.7446 26.031 91.2551 25.4493 93.0402 25.4493C94.3711 25.4493 95.6043 25.8398 96.7398 26.6207C97.9175 27.4282 98.6859 28.4615 99.0451 29.7205H95.6069C95.026 28.6793 94.144 28.1587 92.9609 28.1587C91.9997 28.1587 91.2075 28.504 90.5843 29.1946C89.9823 29.8639 89.6812 30.6874 89.6812 31.6648C89.6812 32.6848 89.9743 33.5348 90.5606 34.2148C91.1785 34.9319 91.9839 35.2905 92.9768 35.2905C93.6687 35.2905 94.2654 35.1338 94.7672 34.8204C95.3059 34.4804 95.665 33.989 95.8446 33.3462H92.2638V30.8839H99.3857C99.391 30.9795 99.3963 31.0858 99.4016 31.2027V31.5214Z" fill="white"/>
<path d="M117.9 33.2346C117.551 34.653 116.814 35.8005 115.689 36.6771C114.575 37.5483 113.289 37.9839 111.831 37.9839C110.078 37.9839 108.586 37.3783 107.355 36.1671C106.119 34.9505 105.502 33.4604 105.502 31.6967C105.502 29.9383 106.114 28.4535 107.339 27.2423C108.559 26.047 110.046 25.4493 111.8 25.4493C114.081 25.4493 115.842 26.3949 117.084 28.2862C117.517 28.9396 117.789 29.5983 117.9 30.2624H114.683C114.15 28.8599 113.183 28.1587 111.784 28.1587C110.838 28.1587 110.059 28.5119 109.447 29.2185C108.86 29.8985 108.567 30.7192 108.567 31.6808C108.567 32.6529 108.86 33.4843 109.447 34.1749C110.065 34.908 110.849 35.2746 111.8 35.2746C113.109 35.2746 114.071 34.5946 114.683 33.2346H117.9Z" fill="white"/>
<path d="M126.487 37.7528V32.9239H122.558V37.7528H119.492V25.6725H122.558V30.2145H126.487V25.6725H129.553V37.7528H126.487Z" fill="white"/>
<path d="M139.463 37.7528L138.877 36.0077H134.71L134.076 37.7528H130.781L135.597 25.6725H138.014L142.791 37.7528H139.463ZM136.833 29.4336H136.786L135.55 33.5614H138.069L136.833 29.4336ZM137.546 24.6126L136.802 23.6723L136.057 24.6126H133.427L135.954 21.9033H137.705L140.145 24.6126H137.546Z" fill="white"/>
<path d="M153.2 32.9717C153.2 33.7951 153.132 34.4618 152.994 34.9718C152.809 35.6252 152.479 36.1936 152.004 36.6771C151.154 37.5483 150.034 37.9839 148.645 37.9839C147.969 37.9839 147.346 37.8856 146.775 37.6891C146.131 37.466 145.603 37.1339 145.191 36.693C144.684 36.1565 144.346 35.5827 144.177 34.9718C144.103 34.6955 144.05 34.3848 144.019 34.0395C143.997 33.7632 143.987 33.4073 143.987 32.9717V25.6725H147.053V32.9717C147.053 33.2904 147.069 33.564 147.1 33.7924C147.142 34.0846 147.214 34.3316 147.314 34.5335C147.557 35.0276 147.99 35.2746 148.613 35.2746C149.258 35.2746 149.691 35.0329 149.913 34.5495C150.002 34.3529 150.066 34.1085 150.103 33.8163C150.124 33.6039 150.134 33.3223 150.134 32.9717V25.6725H153.2V32.9717Z" fill="white"/>
<path opacity="0.8" d="M11.3066 53V47.9951H9.4888V47.2224H14.0172V47.9951H12.2034V53H11.3066ZM14.6263 53V47.2224H16.9045C18.0897 47.2224 18.8264 47.911 18.8264 48.9841V48.9921C18.8264 49.7688 18.41 50.4015 17.7053 50.6377L19.0026 53H17.9655L16.7884 50.7778H15.5232V53H14.6263ZM15.5232 50.0491H16.8164C17.5051 50.0491 17.9055 49.6728 17.9055 49.0161V49.0081C17.9055 48.3675 17.4811 47.9751 16.7884 47.9751H15.5232V50.0491ZM19.1672 53L21.2532 47.2224H22.2222L24.3082 53H23.3633L22.8428 51.4385H20.6326L20.1081 53H19.1672ZM21.7017 48.2354L20.8729 50.7178H22.6025L21.7697 48.2354H21.7017ZM24.8212 53V47.2224H25.63L28.6009 51.4265H28.6609V47.2224H29.5338V53H28.725L25.7581 48.8039H25.694V53H24.8212ZM32.9296 53.1401C31.292 53.1401 30.259 51.971 30.259 50.1132V50.1052C30.259 48.2714 31.304 47.0822 32.9216 47.0822C34.2349 47.0822 35.1678 47.827 35.376 48.944L35.384 48.9841H34.4871L34.4751 48.944C34.2669 48.2594 33.7143 47.875 32.9216 47.875C31.8525 47.875 31.1759 48.7398 31.1759 50.1012V50.1092C31.1759 51.4905 31.8565 52.3474 32.9416 52.3474C33.8865 52.3474 34.5311 51.7508 34.5392 50.8619V50.7338H33.0537V50.0091H35.424V50.7258C35.424 52.1912 34.4431 53.1401 32.9296 53.1401ZM39.3848 53V47.9951H37.5671V47.2224H42.0955V47.9951H40.2817V53H39.3848ZM42.7046 53V47.2224H43.6014V49.6647H46.5683V47.2224H47.4612V53H46.5683V50.4415H43.6014V53H42.7046ZM49.4556 46.6458L50.4046 45.3325H51.3535L52.3024 46.6458H51.4856L50.913 45.813H50.845L50.2724 46.6458H49.4556ZM50.881 53.1401C49.1994 53.1401 48.1824 51.967 48.1824 50.1132V50.1052C48.1824 48.2474 49.2234 47.0822 50.881 47.0822C52.5426 47.0822 53.5756 48.2514 53.5756 50.1052V50.1132C53.5756 51.963 52.5506 53.1401 50.881 53.1401ZM50.881 52.3474C51.9781 52.3474 52.6588 51.4665 52.6588 50.1132V50.1052C52.6588 48.7398 51.9741 47.875 50.881 47.875C49.788 47.875 49.0993 48.7398 49.0993 50.1052V50.1132C49.0993 51.4665 49.7679 52.3474 50.881 52.3474ZM54.3008 53V47.2224H55.1096L58.0805 51.4265H58.1406V47.2224H59.0134V53H58.2046L55.2377 48.8039H55.1737V53H54.3008ZM62.4092 53.1401C60.7716 53.1401 59.7386 51.971 59.7386 50.1132V50.1052C59.7386 48.2714 60.7836 47.0822 62.4012 47.0822C63.7145 47.0822 64.6474 47.827 64.8556 48.944L64.8636 48.9841H63.9667L63.9547 48.944C63.7465 48.2594 63.194 47.875 62.4012 47.875C61.3322 47.875 60.6555 48.7398 60.6555 50.1012V50.1092C60.6555 51.4905 61.3362 52.3474 62.4212 52.3474C63.3662 52.3474 64.0108 51.7508 64.0188 50.8619V50.7338H62.5333V50.0091H64.9037V50.7258C64.9037 52.1912 63.9227 53.1401 62.4092 53.1401ZM68.8645 53V47.9951H67.0467V47.2224H71.5751V47.9951H69.7614V53H68.8645ZM72.1842 53V47.2224H73.0811V53H72.1842ZM74.0385 53V47.2224H74.8473L77.8182 51.4265H77.8782V47.2224H78.7511V53H77.9423L74.9754 48.8039H74.9113V53H74.0385ZM81.7029 53V50.4535H80.9782V49.7648H81.7029V47.2224H83.789C85.5026 47.2224 86.5076 48.2794 86.5076 50.0932V50.1012C86.5076 51.935 85.5106 53 83.789 53H81.7029ZM82.5998 52.2272H83.6889C84.898 52.2272 85.5947 51.4545 85.5947 50.1132V50.1052C85.5947 48.7759 84.886 47.9951 83.6889 47.9951H82.5998V49.7648H83.853V50.4535H82.5998V52.2272ZM87.2328 53V47.2224H88.1297V53H87.2328ZM89.4995 46.6458L90.4484 45.3325H91.3933L92.3423 46.6458H91.5295L90.9529 45.813H90.8888L90.3123 46.6458H89.4995ZM89.0871 53V47.2224H92.7547V47.9951H89.984V49.6848H92.6065V50.4295H89.984V52.2272H92.7547V53H89.0871ZM90.9209 54.8258C90.6246 54.8258 90.3844 54.5896 90.3844 54.2933C90.3844 53.997 90.6246 53.7567 90.9209 53.7567C91.2172 53.7567 91.4574 53.997 91.4574 54.2933C91.4574 54.5896 91.2172 54.8258 90.9209 54.8258ZM93.5599 53V47.2224H94.3687L97.3396 51.4265H97.3997V47.2224H98.2725V53H97.4637L94.4968 48.8039H94.4328V53H93.5599ZM102.45 53V47.9951H100.632V47.2224H105.16V47.9951H103.346V53H102.45ZM107.779 46.6418V46.5978C108.044 46.4136 108.18 46.2454 108.18 46.0853C108.18 45.8851 107.939 45.7729 107.603 45.7729C107.459 45.7729 107.351 45.785 107.271 45.801V45.2965C107.367 45.2604 107.579 45.2244 107.795 45.2244C108.372 45.2244 108.816 45.5447 108.816 45.9651C108.816 46.2374 108.652 46.4416 108.352 46.6418H107.779ZM108.104 53.1401C106.654 53.1401 105.761 52.2793 105.761 51.0101V47.2224H106.658V50.942C106.658 51.7788 107.183 52.3474 108.104 52.3474C109.024 52.3474 109.545 51.7788 109.545 50.942V47.2224C110.558 47.1783 110.774 46.7859 110.774 45.9531H111.539C111.539 46.9621 111.243 47.4025 110.442 47.6147V51.0101C110.442 52.2793 109.557 53.1401 108.104 53.1401ZM114.611 53V47.9951H112.793V47.2224H117.322V47.9951H115.508V53H114.611ZM120.653 46.1253V46.1213C120.753 46.0212 120.805 45.9251 120.805 45.833C120.805 45.6969 120.705 45.6168 120.517 45.6168C120.461 45.6168 120.397 45.6248 120.361 45.6328V45.2124C120.441 45.1844 120.569 45.1604 120.701 45.1604C121.078 45.1604 121.334 45.3485 121.334 45.6488C121.334 45.841 121.226 45.9932 121.05 46.1253H120.653ZM119.832 46.1373H120.493L121.302 46.9461H120.641L120.165 46.4656L119.692 46.9461H119.032L119.832 46.1373ZM120.169 53.1401C118.487 53.1401 117.47 51.967 117.47 50.1132V50.1052C117.47 48.2474 118.511 47.0822 120.169 47.0822C121.83 47.0822 122.863 48.2514 122.863 50.1052V50.1132C122.863 51.963 121.838 53.1401 120.169 53.1401ZM120.169 52.3474C121.266 52.3474 121.947 51.4665 121.947 50.1132V50.1052C121.947 48.7398 121.262 47.875 120.169 47.875C119.076 47.875 118.387 48.7398 118.387 50.1052V50.1132C118.387 51.4665 119.056 52.3474 120.169 52.3474ZM123.589 53V47.2224H124.397L127.368 51.4265H127.428V47.2224H128.301V53H127.492L124.526 48.8039H124.461V53H123.589ZM131.697 53.1401C130.059 53.1401 129.026 51.971 129.026 50.1132V50.1052C129.026 48.2714 130.071 47.0822 131.689 47.0822C133.002 47.0822 133.935 47.827 134.143 48.944L134.151 48.9841H133.254L133.242 48.944C133.034 48.2594 132.482 47.875 131.689 47.875C130.62 47.875 129.943 48.7398 129.943 50.1012V50.1092C129.943 51.4905 130.624 52.3474 131.709 52.3474C132.654 52.3474 133.299 51.7508 133.307 50.8619V50.7338H131.821V50.0091H134.191V50.7258C134.191 52.1912 133.21 53.1401 131.697 53.1401ZM136.687 53V47.2224H137.584V49.6647H140.551V47.2224H141.443V53H140.551V50.4415H137.584V53H136.687ZM144.863 53.1401C143.182 53.1401 142.165 51.967 142.165 50.1132V50.1052C142.165 48.2474 143.206 47.0822 144.863 47.0822C146.213 47.0542 146.485 46.7019 146.513 45.9531H147.274C147.25 46.802 146.969 47.2384 146.285 47.4426C147.093 47.923 147.558 48.86 147.558 50.1052V50.1132C147.558 51.963 146.533 53.1401 144.863 53.1401ZM144.863 52.3474C145.96 52.3474 146.641 51.4665 146.641 50.1132V50.1052C146.641 48.7398 145.956 47.875 144.863 47.875C143.77 47.875 143.082 48.7398 143.082 50.1052V50.1132C143.082 51.4665 143.75 52.3474 144.863 52.3474ZM144.859 54.8258C144.567 54.8258 144.323 54.5896 144.323 54.2933C144.323 53.997 144.567 53.7567 144.859 53.7567C145.156 53.7567 145.4 53.997 145.4 54.2933C145.4 54.5896 145.156 54.8258 144.859 54.8258ZM148.283 53V47.2224H150.533C151.666 47.2224 152.451 47.9831 152.451 49.1162V49.1242C152.451 50.2533 151.666 51.0261 150.533 51.0261H149.18V53H148.283ZM150.309 47.9791H149.18V50.2733H150.309C151.086 50.2733 151.538 49.8529 151.538 49.1282V49.1202C151.538 48.3995 151.086 47.9791 150.309 47.9791Z" fill="white"/>
</svg>
